<?xml version="1.0" standalone="no"?><!DOCTYPE svg PUBLIC "-//W3C//DTD SVG 1.1//EN" "http://www.w3.org/Graphics/SVG/1.1/DTD/svg11.dtd"><svg class="icon" fill="currentColor" width="200px" height="200.00px" viewBox="0 0 1024 1024" version="1.1" xmlns="http://www.w3.org/2000/svg"><path d="M512 861.4912c-5.632 0-11.0592-2.3552-14.9504-6.4512L191.488 528.7936l-0.6144-0.6144C153.7024 487.7312 133.12 434.3808 133.12 377.856c0-57.2416 20.992-111.104 58.9824-151.7568 38.4-40.96 89.4976-63.488 143.9744-63.488 45.4656 0 88.3712 15.5648 124.2112 44.9536 20.8896 17.1008 38.4 38.6048 51.5072 62.6688 13.1072-24.064 30.72-45.568 51.5072-62.6688 35.84-29.4912 78.7456-44.9536 124.2112-44.9536 54.4768 0 105.5744 22.528 143.9744 63.488 38.0928 40.6528 58.9824 94.5152 58.9824 151.7568 0 56.5248-20.48 109.8752-57.6512 150.3232l-0.6144 0.6144-305.2544 326.144c-3.8912 4.1984-9.3184 6.5536-14.9504 6.5536zM221.9008 501.3504L512 811.008l290.0992-309.6576c0.1024-0.2048 0.3072-0.3072 0.4096-0.4096 30.5152-32.8704 47.3088-76.5952 47.3088-123.0848 0-96.1536-72.704-174.2848-161.9968-174.2848-72.2944 0-136.3968 52.224-155.9552 126.976-2.3552 9.0112-10.5472 15.2576-19.7632 15.2576-9.3184 0-17.408-6.2464-19.7632-15.2576-19.5584-74.752-83.7632-126.976-155.9552-126.976-89.3952 0-161.9968 78.2336-161.9968 174.2848 0 46.4896 16.7936 90.112 47.3088 123.0848-0.1024 0.1024 0.1024 0.3072 0.2048 0.4096z" /></svg>